<?xml version="1.0" encoding="UTF-8" standalone="no"?>
<!DOCTYPE svg PUBLIC "-//W3C//DTD SVG 1.1//EN" "http://www.w3.org/Graphics/SVG/1.1/DTD/svg11.dtd">
<svg width="100%" height="100%" viewBox="0 0 128 52" version="1.1" xmlns="http://www.w3.org/2000/svg" xmlns:xlink="http://www.w3.org/1999/xlink" xml:space="preserve" xmlns:serif="http://www.serif.com/" style="fill-rule:evenodd;clip-rule:evenodd;stroke-linejoin:round;stroke-miterlimit:2;">
    <g transform="matrix(0.283353,0,0,0.283353,-105.161,-61.6142)">
        <g id="Fill-1" transform="matrix(2.77196,0,0,2.77196,375.248,221.296)">
            <path d="M159.531,17.045C159.761,17.874 158.908,18.872 158.689,19.77C159.022,20.533 158.771,20.924 158.213,21.837C156.734,24.253 156.12,27.4 154.087,30.129C154.165,28.457 155.135,26.703 156.195,25.213C154.392,26.49 153.434,28.875 153.755,30.578C154.013,30.659 153.821,30.268 154.087,30.129C154.298,30.194 154.079,30.698 154.392,30.345C154.517,30.512 154.122,30.86 154.005,30.872C153.774,31.812 154.313,32.501 154.658,33.299C154.713,33.419 154.486,33.539 154.514,33.655C154.662,34.247 155.565,34.859 156.418,35.486C156.824,35.366 157.29,35.625 157.736,35.745C156.469,36.38 155.214,37.08 153.723,36.302C153.43,36.194 153.798,35.981 153.72,35.838C152.414,35.044 152.378,34.054 151.616,33.175C151.882,32.923 151.452,32.61 151.85,32.54C151.565,31.321 151.705,30.036 151.588,28.789C152.312,27.744 152.339,26.812 152.73,25.817C152.808,25.554 152.449,25.782 152.48,25.526C153.493,23.061 154.029,20.773 155.006,18.149C154.389,18.149 154.021,18.524 153.473,18.656C153.387,18.675 153.109,18.478 152.981,18.532C151.995,18.938 151.459,20.382 150.443,20.723C150.65,20.053 151.471,19.604 151.897,18.9C150.982,19.047 150.271,20.494 149.415,21.013C149.93,19.674 151.26,18.64 152.253,17.316C152.003,17.161 151.819,17.409 151.616,17.545C151.749,16.824 152.523,16.484 152.906,15.95C151.17,16.755 150.072,18.884 148.323,20.92C148.609,20.893 148.808,20.316 149.062,20.072C149.399,21.21 147.205,22.387 147.197,23.556C147.662,23.366 147.69,22.364 148.308,22.519C147.924,22.976 147.752,23.127 147.612,23.622C146.548,23.804 146.755,25.352 146.126,26.115C146.212,26.324 146.091,26.564 146.231,26.765C144.522,29.649 143.385,32.792 140.913,35.571C140.772,35.439 141.046,35.242 140.905,35.106C140.385,34.797 140.068,35.761 139.599,35.776C139.275,35.563 139.49,35.261 139.478,34.998C137.937,35.099 137.48,33.33 137.319,32.409C137.64,32.021 137.789,31.452 137.824,30.934C141.5,26.378 143.197,21.915 145.422,17.448C145.128,17.587 144.776,17.347 144.483,17.46C145.082,16.844 145.61,16.748 146.02,16.155C146.751,15.118 146.555,13.33 147.901,12.339C148.491,12.687 149.047,12.834 149.832,13.504C149.907,14.088 149.891,14.688 149.781,15.304C149.95,15.377 150.165,15.737 150.271,15.427C150.353,15.594 150.267,15.784 150.091,15.989C150.317,15.992 150.474,15.559 150.685,15.497C151.002,15.582 150.564,15.784 150.881,15.865C151.138,15.814 151.389,15.683 151.623,15.485C151.878,15.803 152.046,15.602 152.265,15.718C152.926,14.94 153.947,14.274 155.061,14.281C155.307,14.007 155.221,13.697 155.581,13.736C155.89,13.844 155.753,14.022 155.585,14.2C155.98,14.258 156.058,14.007 156.105,13.655C156.75,14.359 157.286,14.026 157.688,14.34C157.958,14.417 157.728,14.061 157.986,14.092C158.177,14.529 158.385,14.963 159.057,15.323C158.693,15.733 159.14,16.02 158.697,16.445C158.85,16.554 158.999,16.662 159.151,16.771C159.034,17.057 158.983,17.328 159.015,17.591C159.225,17.657 159.355,17.193 159.531,17.045" style="fill:rgb(255,255,254);"/>
        </g>
        <g id="Fill-2" transform="matrix(2.77196,0,0,2.77196,375.248,221.296)">
            <path d="M158.079,23.122C158.162,23.289 158.072,23.479 157.9,23.684C157.571,23.556 158.009,23.312 158.079,23.122" style="fill:rgb(255,255,254);"/>
        </g>
        <g id="Fill-3" transform="matrix(2.77196,0,0,2.77196,375.248,221.296)">
            <path d="M156.195,25.213C155.136,26.703 154.165,28.457 154.087,30.129C153.821,30.268 154.013,30.659 153.755,30.578C153.434,28.875 154.392,26.49 156.195,25.213" style="fill:rgb(255,255,254);"/>
        </g>
        <g id="Fill-4" transform="matrix(2.77196,0,0,2.77196,375.248,221.296)">
            <path d="M142.109,16.898C142.207,17.893 140.503,19.074 140.616,20.192C140.898,20.417 141.043,19.778 141.285,19.755C140.737,20.537 140.428,21.83 139.615,22.34C138.844,24.276 137.754,26.188 136.017,28.023C135.869,28.267 136.146,28.445 136.119,28.669C135.716,29.506 135.157,29.366 134.731,30.086C134.429,29.831 135.012,29.804 134.856,29.598C134.129,30.221 133.487,31.41 132.791,32.25C133.355,32.134 133.784,31.158 134.394,31.332C133.918,32.436 132.248,33.318 131.301,34.274C131.231,34.661 131.055,35.037 130.66,35.308C130.449,35.072 130.589,34.785 130.797,34.487C130.128,35.075 129.393,35.222 128.712,35.741C128.572,35.609 128.846,35.412 128.705,35.281C127.359,35.977 125.811,35.133 124.454,34.743C122.761,31.855 122.835,28 125.702,24.841C126.246,22.747 127.704,20.587 129.405,18.547C131.172,16.426 132.404,13.477 134.727,12.73C136.041,13.701 137.061,14.715 137.046,15.892C134.848,17.483 133.053,19.414 131.086,21.942C131.536,22.221 132.369,21.284 132.87,20.467C132.991,21.501 130.617,22.379 130.887,23.634C130.167,24.272 129.905,24.725 129.318,25.608C129.545,25.77 129.62,24.973 129.878,25.321C129.069,26.989 127.93,27.907 127.121,29.54C127.485,29.416 127.755,28.735 128.083,28.395C128.024,29.312 127.219,30.345 126.996,31.29C127.766,30.883 128.455,30.589 129.233,30.144C130.32,29.521 131.039,28.433 132.127,27.632C132.913,27.048 134.144,26.811 134.633,25.646C134.868,25.429 135.137,25.449 135.376,25.263C137.46,22.894 139.314,20.293 140.279,17.649C140.753,17.533 140.843,17.185 141.468,16.666C141.222,16.395 141.112,16.964 140.866,16.693C140.971,16.209 141.515,16.012 141.848,15.675C142.364,15.919 141.21,16.964 141.327,17.487C141.645,17.63 141.817,16.895 142.109,16.898M139.544,21.489C139.979,21.063 140.377,20.072 140.307,19.507C140.041,20.169 139.591,20.858 139.544,21.489M137.179,23.916C137.363,23.49 138.199,22.96 137.781,22.627C137.636,23.049 137.159,23.521 137.179,23.916" style="fill:rgb(255,255,254);"/>
        </g>
        <g id="Fill-5" transform="matrix(2.77196,0,0,2.77196,375.248,221.296)">
            <path d="M140.33,23.893C140.397,24.311 140.115,24.671 139.744,24.849C139.686,24.57 140.178,24.206 140.33,23.893" style="fill:rgb(255,255,254);"/>
        </g>
        <g id="Fill-6" transform="matrix(2.77196,0,0,2.77196,375.248,221.296)">
            <path d="M135.802,30.051C135.892,30.512 135.384,30.605 135.29,31.061C134.989,30.798 135.681,30.38 135.802,30.051" style="fill:rgb(255,255,254);"/>
        </g>
        <g id="Fill-7" transform="matrix(2.77196,0,0,2.77196,375.248,221.296)">
            <path d="M134.836,30.733C135.161,30.845 134.7,31.34 134.539,30.98C134.633,30.864 134.711,30.667 134.836,30.733" style="fill:rgb(255,255,254);"/>
        </g>
        <g id="Fill-8" transform="matrix(2.77196,0,0,2.77196,375.248,221.296)">
            <path d="M125.921,5.921C127.344,5.948 128.677,7.628 128.775,8.669C127.833,9.269 126.82,9.54 126.519,10.949C125.698,9.369 125.807,7.647 125.921,5.921" style="fill:rgb(255,255,254);"/>
        </g>
        <g id="Fill-9" transform="matrix(2.77196,0,0,2.77196,375.248,221.296)">
            <path d="M120.919,18.404C121.326,19.004 120.966,19.728 121.229,20.351C121.091,20.665 120.939,21.245 120.587,21.381C120.833,21.667 120.97,21.261 121.229,21.613C120.857,22.294 120.262,23.007 120.466,23.595C118.076,26.854 115.245,31.065 113.908,34.723C113.501,34.568 113.087,34.371 112.781,34.832C112.309,34.642 112.816,34.297 112.395,34.096C111.984,33.899 111.675,34.344 111.311,34.464C110.819,33.763 110.631,33.02 110.229,32.304C111.003,29.947 112.457,27.481 113.45,25.089C114.052,24.024 114.823,23.142 115.343,22.198C115.492,21.923 115.468,21.609 115.613,21.358C116.223,20.293 117.063,19.426 117.482,18.342C117.732,17.688 117.568,16.84 118.491,16.654C119.512,17.1 120.094,17.637 120.919,18.404M114.576,31.762C115.296,30.589 116.563,29.467 116.704,28.236C115.859,29.312 114.859,30.489 114.576,31.762" style="fill:rgb(255,255,254);"/>
        </g>
        <g id="Fill-10" transform="matrix(2.77196,0,0,2.77196,375.248,221.296)">
            <path d="M120.986,11.212C120.618,11.383 120.7,11.878 120.301,11.982C120.067,11.398 120.399,10.728 119.488,10.248C117.04,10.252 115.077,13.291 112.715,14.56C111.687,15.114 110.244,15.16 109.259,16.895C109.904,16.658 110.275,15.625 111.081,15.679C109.845,17.614 108.155,19.635 106.502,21.114C106.955,19.933 108.023,19.128 108.672,17.851C106.982,19.484 105.34,21.4 103.761,23.738C104.152,23.498 104.507,23.064 104.875,22.7C104.84,23.699 103.686,24.88 103.307,25.936C103.713,25.956 103.995,25.213 104.339,24.841C104.288,25.124 104.105,25.809 103.811,25.724C103.002,27.4 103.205,28.921 102.697,30.551C102.834,30.577 102.955,30.493 103.068,30.361C103.209,31.089 102.173,31.638 101.989,32.459C101.817,33.864 101.852,35.826 100.155,36.535C99.705,36.384 99.287,36.426 98.92,36.794C98.626,36.515 98.384,36.519 98.165,36.709C97.058,36.175 97.312,35.424 96.526,34.839C96.573,34.208 96.319,33.628 96.499,32.981C95.162,32.695 94.156,31.692 93.464,30.794C93.554,30.651 93.671,30.701 93.762,30.547C93.109,29.873 93.222,29.08 92.678,28.387C92.847,27.299 92.643,26.266 92.577,25.213C92.682,24.899 92.401,25.402 92.295,25.124C92.272,24.884 92.162,24.656 92.507,24.358C92.24,24.485 92.189,24.319 92.127,24.087C90.993,25.437 90.954,26.618 89.726,27.984C89.663,28.104 89.934,28.174 89.843,28.298C88.302,31.205 86.027,33.248 83.696,34.441C83.403,34.406 84.08,34.34 84.162,33.972C83.638,33.57 82.562,33.96 82.421,33.179C82.144,32.966 81.94,33.252 81.671,33.093C81.248,32.184 80.544,31.321 80.431,30.361C80.583,28.921 80.744,27.477 80.951,26.025C82.527,23.645 83.149,20.978 84.991,18.482C85.542,17.734 86.101,16.674 86.793,15.872C88.064,14.401 89.628,12.513 91.357,12.037C92.459,12.842 93.691,13.623 94.43,14.483C94.591,14.703 94.575,14.947 94.481,15.207C94.798,15.23 94.986,14.452 95.376,14.936C95.443,14.746 95.881,14.502 95.556,14.375C95.694,14.112 95.955,14.619 96.08,14.293C96.386,14.789 96.706,14.634 97.066,15.006C97.926,15.888 97.332,16.914 97.672,17.967C97.363,18.35 97.222,18.702 97.238,19.035C97.563,19.163 97.391,18.497 97.645,18.636C98.031,19.329 97.187,20.216 97.602,20.904C97.422,21.156 97.457,21.373 97.179,21.636C97.128,21.756 97.324,21.834 97.429,21.93C96.706,22.995 96.933,23.912 96.233,24.977C96.717,25.124 96.553,24.334 96.897,24.075C96.776,25.999 95.686,28.073 96.08,29.92C96.561,30.268 97.039,30.613 97.52,30.957C98.051,30.86 98.321,29.873 98.419,29.424C100.261,24.818 103.831,20.258 105.821,15.567C104.582,15.923 103.389,16.601 101.919,15.513C101.852,14.947 100.988,14.502 100.996,13.926C103.616,12.532 106.224,11.038 108.981,10.488C110.752,7.16 112.574,3.626 114.428,0.397C117.048,2.073 114.162,4.604 114.479,6.641C113.763,7.372 113.99,7.957 113.982,8.58C114.201,8.693 114.373,8.491 114.623,8.812C114.882,8.569 115.194,8.801 115.562,8.797C115.672,8.797 115.808,8.603 115.934,8.607C116.039,8.611 116.137,8.824 116.238,8.828C117.161,8.847 118.659,8.661 119.586,9.168C120.438,9.636 120.95,10.457 120.986,11.212M105.387,19.163C106.103,17.963 107.436,17.483 107.452,16.511C106.795,17.32 105.782,18.126 105.387,19.163M96.249,25.906C96.358,25.689 96.17,25.519 96.088,25.329C95.815,25.507 96.291,25.565 96.018,25.739C96.096,25.794 96.17,25.847 96.249,25.906M94.203,15.582C93.273,15.919 92.28,15.869 91.486,17.069C90.891,17.262 90.34,17.862 90.172,18.54C88.291,19.86 87.544,21.722 86.187,23.483C86.355,23.397 86.488,23.126 86.672,23.138C86.429,24.411 84.869,25.495 84.619,26.719C84.556,26.796 84.517,26.935 84.642,26.846C84.791,26.482 84.854,26.428 85.178,26.432C85.205,27.005 84.361,27.709 84.529,28.263C88.334,25.19 91.936,19.999 94.203,15.582M85.527,24.381C85.69,24.141 86.222,24.021 86.152,23.687C85.956,23.738 85.456,24.052 85.527,24.381" style="fill:rgb(255,255,254);"/>
        </g>
        <g id="Fill-11" transform="matrix(2.77196,0,0,2.77196,375.248,221.296)">
            <path d="M106.916,22.445C106.455,23.208 106.165,23.939 105.465,24.733C105.442,24.605 105.422,24.473 105.403,24.346C105.876,23.796 106.591,22.534 106.916,22.445" style="fill:rgb(255,255,254);"/>
        </g>
        <g id="Fill-12" transform="matrix(2.77196,0,0,2.77196,375.248,221.296)">
            <path d="M87.982,9.834C87.955,10.171 87.786,10.658 87.474,10.844C85.831,10.105 84.556,11.677 83.137,12.319C83.032,12.513 83.051,12.687 82.828,12.9C82.547,13.062 82.946,12.579 83.028,12.47C82.851,12.199 82.789,12.671 82.613,12.401C81.334,13.666 79.923,14.057 78.679,15.54C79.997,14.823 81.26,13.751 82.542,12.811C82.304,13.751 80.92,14.278 80.188,14.904C78.574,17.355 75.903,19.798 74.085,22.573C74.131,22.225 74.096,21.992 73.666,22.039C73.783,21.733 74.014,21.408 73.991,21.125C73.627,21.869 72.137,23.362 72.794,24.171C72.989,24.113 73.193,23.49 73.513,23.192C73.428,23.951 72.305,25.027 71.883,26.041C72.297,26.084 72.391,25.507 72.622,25.193C72.383,26.672 71.512,28.248 70.866,29.792C70.663,29.955 71.265,29.993 71.062,30.16C70.659,31.418 70.104,32.703 69.517,33.992C68.892,33.713 69.13,33.299 69.017,32.939C68.578,33.287 68.196,33.984 67.675,33.814C67.621,33.643 67.648,33.461 67.593,33.291C67.366,32.977 67.257,33.426 67.03,33.113C66.623,32.668 66.51,32.176 66.072,31.735C66.432,30.957 65.623,30.469 65.892,29.768C65.97,29.564 66.24,29.397 66.334,29.165C66.584,28.553 66.74,27.868 67.038,27.261C68.598,24.082 69.177,20.436 70.686,17.25C70.784,16.639 70.608,16.066 70.342,15.509C70.745,15.071 71.288,15.547 71.687,15.098C72.211,15.668 73.079,15.482 73.205,16.194C73.69,16 74.151,15.644 74.581,15.114C77.393,14.22 79.946,11.677 82.738,10.651C82.907,10.45 82.589,10.322 82.918,10.093C83.607,9.726 84.991,9.304 85.835,9.439C86.653,9.567 87.274,9.172 87.982,9.834M79.653,12.795C79.344,12.532 79.172,13.148 78.906,13.178C79.211,13.384 79.402,12.911 79.653,12.795M78.038,15.307C78.229,14.99 78.554,14.978 78.402,14.653C78.316,14.866 77.909,15.129 78.038,15.307M75.578,18.017C76.071,17.161 76.978,16.681 77.256,15.895C76.708,16.151 75.664,17.649 75.578,18.017" style="fill:rgb(255,255,254);"/>
        </g>
        <g id="Fill-13" transform="matrix(2.77196,0,0,2.77196,375.248,221.296)">
            <path d="M85.112,12.478C84.635,13.604 83.067,13.814 82.198,14.859C81.932,15.18 81.554,15.837 81.053,16.101C80.963,16.147 80.693,16.035 80.583,16.109C80.248,16.329 79.829,16.91 79.359,17.297C78.808,17.754 78.112,17.936 78.139,18.485C77.71,18.47 77.404,19.213 77.029,19.522C78.437,16.422 81.299,15.191 83.446,13C83.876,13.318 84.556,12.656 85.112,12.478" style="fill:rgb(255,255,254);"/>
        </g>
        <g id="Fill-14" transform="matrix(2.77196,0,0,2.77196,375.248,221.296)">
            <path d="M80.873,16.662C80.423,17.142 80.462,17.731 79.934,17.94C80.118,17.537 80.216,16.689 80.873,16.662" style="fill:rgb(255,255,254);"/>
        </g>
        <g id="Fill-15" transform="matrix(2.77196,0,0,2.77196,375.248,221.296)">
            <path d="M78.323,18.389C78.331,18.652 78.163,18.946 77.925,19.248C77.655,18.826 78.014,18.632 78.323,18.389" style="fill:rgb(255,255,254);"/>
        </g>
        <g id="Fill-16" transform="matrix(2.77196,0,0,2.77196,375.248,221.296)">
            <path d="M77.608,19.364C77.651,19.654 77.455,20.289 77.056,20.115C77.021,19.79 77.42,19.596 77.608,19.364" style="fill:rgb(255,255,254);"/>
        </g>
        <g id="Fill-17" transform="matrix(2.77196,0,0,2.77196,375.248,221.296)">
            <path d="M76.646,20.51C76.974,20.637 76.544,20.932 76.446,20.943C76.27,20.87 76.454,20.421 76.646,20.51" style="fill:rgb(255,255,254);"/>
        </g>
        <g id="Fill-18" transform="matrix(2.77196,0,0,2.77196,375.248,221.296)">
            <path d="M68.841,15.342C69.044,15.513 69.173,15.195 69.404,15.52C68.239,17.726 66.862,22.256 64.074,23.401C63.894,23.606 64.074,23.754 63.894,23.963C63.206,24.416 62.518,24.872 61.853,25.476C59.953,25.426 59.624,28.479 58.42,29.668C58.114,28.739 58.779,27.659 59.014,26.649C57.36,28.282 57.504,30.21 57.81,31.758C58.99,32.25 60.516,31.41 61.849,30.531C63.053,29.737 64.289,28.565 65.521,27.431C65.697,27.671 65.521,27.965 65.775,28.189C64.07,29.977 63.749,32.393 62.22,34.131C62.166,34.247 62.362,34.328 62.467,34.425C61.755,34.866 61.086,35.602 60.265,35.366C59.874,35.71 59.499,36.179 58.994,35.83C59.19,35.637 59.612,35.594 59.588,35.339C58.814,35.548 57.719,35.4 56.734,35.118C56.198,34.963 56.273,34.53 55.893,34.05C55.346,33.361 54.548,33.008 55.002,32.261C54.501,32.072 54.748,31.77 54.353,31.565C54.623,31.278 54.685,31.027 54.701,30.779C54.247,29.61 54.939,28.259 54.908,27.024C55.842,25.151 56.941,22.968 57.7,21.335C58.349,20.928 58.232,20.471 58.861,19.759C59.006,19.558 58.791,19.414 58.775,19.24C59.972,17.796 60.723,16.194 61.927,14.959C62.483,13.55 64.309,13.12 65.337,11.901C65.873,12.04 66.326,11.654 66.835,11.599C67.124,11.731 66.843,11.843 66.745,11.881C66.987,11.897 67.085,12.292 67.597,12.61C69.067,12.865 68.997,14.405 68.841,15.342" style="fill:rgb(255,255,254);"/>
        </g>
        <g id="Fill-19" transform="matrix(2.77196,0,0,2.77196,375.248,221.296)">
            <path d="M59.502,29.3C59.729,29.471 59.319,29.92 59.135,29.955C59.006,29.776 59.417,29.513 59.502,29.3" style="fill:rgb(255,255,254);"/>
        </g>
        <g id="Fill-20" transform="matrix(2.77196,0,0,2.77196,375.248,221.296)">
            <path d="M56.347,21.28C56.499,21.609 55.956,22.05 55.725,22.441C55.584,22.097 56.081,21.485 56.347,21.28" style="fill:rgb(255,255,254);"/>
        </g>
        <g id="Fill-21" transform="matrix(2.77196,0,0,2.77196,375.248,221.296)">
            <path d="M5.637,18.419C5.754,18.311 5.91,18.412 6.036,18.342C7.201,16.554 8.554,15.029 9.458,13.685C8.038,14.936 6.818,17.076 5.637,18.419M18.017,27.818C17.294,28.932 16.042,30.342 15.644,31.476C14.717,31.963 13.947,33.461 12.996,33.817C11.479,35.838 9.762,36.597 8.073,37.51C6.712,37.27 5.543,38.226 4.174,37.916C3.78,37.735 4.049,37.448 4.128,37.193C3.134,36.949 2.333,36.523 1.774,35.497C1.374,34.762 1.273,33.229 0.921,32.238C0.764,31.801 0.585,31.232 0.522,30.574C0.425,29.536 0.616,28.813 0.425,27.86C1.606,22.519 4.214,15.532 9.446,10.229C11.631,8.018 14.103,5.394 16.68,4.183C17.36,4.155 18.212,3.877 19.124,4.333C20.117,4.833 20.989,5.704 21.482,6.493C20.88,6.931 20.199,6.861 19.538,6.931C18.925,7.295 18.326,7.763 17.673,7.887C14.017,10.655 10.399,13.682 7.068,18.512C7.115,19.639 6.411,20.324 5.852,21.431C5.43,22.263 5.25,23.332 4.898,24.303C4.237,26.15 3.674,27.977 3.529,29.637C3.725,29.742 3.838,29.316 4.053,29.556C3.365,30.152 4.053,30.531 3.365,31.127C3.584,32.199 3.76,33.283 3.748,34.394C5.41,34.762 6.838,32.827 8.773,31.348C9.144,31.065 9.676,30.744 10.333,30.175C12.867,27.992 16.41,23.885 17.744,20.576C15.632,20.669 13.802,22.561 11.773,23.169C11.35,22.758 10.99,22.747 10.643,22.813C9.555,22.093 10.243,21.102 9.442,20.339C13.692,16.639 18.279,15.075 22.776,12.942C24.818,12.691 26.839,12.3 29.005,12.838C29.4,13.186 29.757,13.314 30.104,13.395C30.617,14.073 31.313,14.715 30.847,15.544C33.08,14.363 35.153,12.184 37.558,12.102C38.644,12.842 39.72,13.585 39.88,14.467C39.274,15.679 38.875,16.666 37.831,18.044C37.866,18.218 37.542,18.447 37.913,18.567C37.499,19.399 36.783,20.672 35.868,21.342C35.817,21.659 36.173,21.055 36.338,21.338C35.919,21.807 35.567,22.689 35.059,22.6C35.008,22.364 35.184,22.093 35.407,21.814C34.531,22.948 33.244,23.533 32.74,24.489C32.673,24.369 32.716,24.23 32.81,24.083C30.464,26.366 27.989,27.833 25.443,28.886C25.474,29.943 25.393,31.023 25.416,32.083C28.059,31.816 30.464,30.024 32.951,28.782C33.874,27.86 34.981,27.454 35.907,26.657C37.104,25.627 37.925,24.71 39.22,23.417C39.802,22.832 40.427,22.468 40.741,21.981C41.468,20.839 41.62,19.48 42.453,18.389C42.989,16.511 44.651,14.456 44.436,12.694C45.179,12.435 46.074,13.132 46.966,13.829C46.84,14.092 47.028,14.308 47.017,14.552C47.619,14.27 48.209,13.902 48.804,13.542C48.866,13.666 48.827,13.806 48.733,13.952C50.877,12.845 53.59,11.564 55.909,14.297C55.737,14.526 56.05,14.676 55.807,14.912C58.208,16.19 57.614,18.605 55.823,20.096C55.318,21.365 54.005,22.883 53.406,24.33C52.425,26.114 50.485,27.241 50.298,28.871C51.96,27.605 52.691,25.484 54.056,23.765C53.774,25.182 52.538,26.75 51.678,28.259C51.439,28.306 51.244,28.615 50.99,28.565C50.935,29.451 50.278,29.614 50.282,30.469C50.454,30.562 50.559,30.241 50.731,30.334C50.877,29.575 51.639,28.805 51.83,28.367C52.233,28.859 51.807,29.153 51.459,29.823C51.979,29.854 52.354,28.991 52.851,28.871C52.085,30.605 51.271,32.463 49.688,33.488C49.093,33.117 48.589,33.318 48.072,33.473C46.602,32.594 47.091,31.41 46.77,30.353C47.212,28.909 48.245,27.775 48.741,26.254C49.171,24.923 49.453,23.571 50.055,22.259C50.259,21.807 50.434,21.361 50.372,20.881C51.119,19.674 51.682,17.99 52.245,16.6C50.81,16.163 49.785,18.319 48.522,18.973C47.732,20.324 46.195,21.098 45.308,22.399C44.42,23.699 44.158,25.232 43.208,26.517C42.997,26.796 43.294,26.993 43.255,27.241C42.508,27.558 42.289,28.232 41.851,28.991C42.168,28.994 42.344,28.135 42.708,28.457C42.039,29.858 40.905,31.654 40.416,33.469C39.759,34.123 38.887,33.43 38.081,33.167C37.193,32.575 37.217,31.84 36.365,31.239C36.513,30.508 36.556,29.792 36.431,29.103C37.491,27.609 38.215,26.165 39.09,24.698C37.569,25.906 36.193,28.011 34.64,29.013C34.793,28.828 34.868,28.646 34.789,28.495C34.718,28.677 34.3,28.917 34.589,29.045C34.472,29.118 34.355,29.184 34.234,29.246C34.034,29.521 33.831,29.796 33.628,30.071C33.499,30.144 33.819,30.392 33.909,30.326C32.13,32.869 29.674,35.517 27.05,36.016C27.007,35.482 26.045,35.308 25.689,35.497C24.739,34.704 24.602,35.281 23.496,34.375C23.57,34.274 23.644,34.174 23.718,34.077C23.441,33.876 23.159,33.674 22.882,33.473C21.615,31.41 21.767,29.126 22.354,26.773C22.506,26.463 22.73,26.602 22.894,26.359C23.801,22.701 27.492,19.546 30.046,16C30.01,15.319 30.007,14.63 29.662,13.999C27.551,12.822 26.061,15.571 24.25,16.303C23.429,17.622 22.401,17.622 21.544,18.722C21.419,18.64 21.282,18.474 21.184,18.578C20.762,19.395 21.341,20.061 20.356,20.966C20.184,21.249 20.759,20.85 20.586,21.129C20.328,21.837 19.531,22.623 19.058,23.363C19.652,23.405 19.386,22.859 19.82,22.646C19.937,22.585 19.386,23.293 19.342,23.452C19.303,23.583 19.523,23.63 19.46,23.765C19.019,24.714 18.326,25.708 18.048,26.312C19.675,25.445 20.594,22.089 21.759,20.483C21.65,21.741 20.97,23.088 20.367,24.423C19.593,25.453 18.791,26.486 18.889,27.38C18.475,27.857 18.103,28.635 17.654,28.902C17.9,28.522 17.841,28.189 18.017,27.818M18.017,27.814C18.08,27.725 18.13,27.64 18.181,27.555C18.111,27.644 18.056,27.733 18.017,27.814M36.071,15.861C35.02,15.606 33.671,17.088 32.49,17.413C29.944,19.685 28.032,21.721 26.081,24.864C29.557,22.805 33.123,19.921 36.071,15.861M16.179,29.331C16.531,28.488 16.977,28.348 17.317,27.624C16.743,27.798 16.183,28.832 16.179,29.331M15.128,29.494C15.522,29.865 15.91,28.84 15.738,28.669C15.401,29.06 15.436,29.25 15.128,29.494M10.627,34.983C12.375,32.753 14.483,30.93 15.522,28.17C13.923,30.307 11.561,32.652 10.627,34.983M5.089,20.417C5.187,19.983 5.903,19.449 5.743,19.054C5.398,19.526 4.937,20.022 5.089,20.417" style="fill:rgb(255,255,254);"/>
        </g>
        <g id="Fill-22" transform="matrix(2.77196,0,0,2.77196,375.248,221.296)">
            <path d="M42.739,27.787C43.067,27.919 42.582,28.282 42.48,28.294C42.391,28.189 42.504,27.725 42.739,27.787" style="fill:rgb(255,255,254);"/>
        </g>
        <g id="Fill-23" transform="matrix(2.77196,0,0,2.77196,375.248,221.296)">
            <path d="M38.457,17.351C38.672,17.158 38.918,17.154 39.211,17.432C38.445,17.781 38.829,18.787 37.96,19.29C37.753,18.702 38.739,17.928 38.457,17.351" style="fill:rgb(255,255,254);"/>
        </g>
        <g id="Fill-24" transform="matrix(2.77196,0,0,2.77196,375.248,221.296)">
            <path d="M34.789,28.495C34.868,28.646 34.793,28.828 34.64,29.013C34.624,29.025 34.605,29.033 34.589,29.045C34.3,28.917 34.718,28.677 34.789,28.495" style="fill:rgb(255,255,254);"/>
        </g>
        <g id="Fill-25" transform="matrix(2.77196,0,0,2.77196,375.248,221.296)">
            <path d="M34.64,29.014C34.632,29.025 34.62,29.041 34.609,29.053C34.601,29.049 34.597,29.049 34.589,29.045C34.605,29.033 34.624,29.025 34.64,29.014" style="fill:rgb(255,255,254);"/>
        </g>
        <g id="Fill-26" transform="matrix(2.77196,0,0,2.77196,375.248,221.296)">
            <path d="M18.017,27.814C18.056,27.733 18.111,27.644 18.182,27.555C18.131,27.64 18.08,27.725 18.017,27.814" style="fill:rgb(255,255,254);"/>
        </g>
        <g id="Fill-27" transform="matrix(2.77196,0,0,2.77196,375.248,221.296)">
            <path d="M157.044,42.31C153.392,41.955 150.137,41.777 146.866,41.966C145.469,42.047 144.06,42.041 142.656,42.037C138.942,42.025 135.226,42 131.512,41.963C128.698,41.934 125.891,41.755 123.068,41.818C118.74,41.915 114.401,41.788 110.066,41.77C108.209,41.762 106.35,41.761 104.494,41.808C101.909,41.874 99.327,41.989 96.743,42.081C93.991,42.181 91.237,42.279 88.484,42.376C86.067,42.461 83.651,42.598 81.233,42.615C77.411,42.642 73.586,42.572 69.764,42.573C65.542,42.573 61.322,42.618 57.1,42.624C52.654,42.631 48.206,42.621 43.759,42.604C42.747,42.6 41.732,42.51 40.719,42.51C38.47,42.51 36.231,42.76 33.973,42.606C33.469,42.572 32.96,42.611 32.453,42.618C29.866,42.655 27.279,42.7 24.691,42.725C24.018,42.731 23.341,42.645 22.668,42.654C19.913,42.689 17.158,42.747 14.403,42.791C13.392,42.808 12.38,42.803 11.37,42.818C10.92,42.824 10.466,42.828 10.022,42.879C7.694,43.142 5.353,43.289 2.95,43.271C3.008,43.801 3.048,44.308 3.124,44.81C3.202,45.324 3.307,45.836 3.859,46.336C4.506,46.463 5.274,46.738 6.034,46.733C7.262,46.726 8.486,46.546 9.708,46.419C10.819,46.304 11.924,46.155 13.036,46.039C13.424,45.998 13.836,46.064 14.213,45.995C17.078,45.468 20.023,45.555 22.926,45.325C23.258,45.298 23.599,45.33 23.936,45.338C24.833,45.356 25.732,45.417 26.627,45.389C29.884,45.289 33.136,45.026 36.403,45.349C37.687,45.476 38.96,45.709 40.26,45.552C40.475,45.526 40.71,45.577 40.932,45.61C43.279,45.965 45.636,46.022 48.004,45.925C48.845,45.89 49.701,45.858 50.536,45.94C52.18,46.104 53.794,45.933 55.41,45.81C57.75,45.663 60.733,45.368 63.791,45.101C64.234,45.065 64.712,45.023 65.13,45.122C66.134,45.357 67.137,45.293 68.148,45.304C69.383,45.318 70.622,45.354 71.854,45.452C73.197,45.559 74.529,45.794 75.873,45.893C80.144,46.207 84.42,46.439 88.699,46.227C90.1,46.157 91.496,46.035 92.897,45.956C94.633,45.859 96.378,45.649 98.109,45.727C101.225,45.867 104.284,45.496 107.369,45.381C109.388,45.306 111.401,45.149 113.417,45.046C115.325,44.948 117.235,44.878 119.142,44.785C120.152,44.736 121.159,44.67 122.166,44.603C123.675,44.502 125.184,44.389 126.694,44.289C127.644,44.227 128.595,44.17 129.546,44.128C131.452,44.041 133.364,44.017 135.261,43.868C136.33,43.785 137.381,43.733 138.455,43.79C139.465,43.844 140.496,43.909 141.486,43.797C143.273,43.595 145.064,43.537 146.864,43.52C147.426,43.515 147.99,43.515 148.549,43.477C150.171,43.369 151.548,42.964 153.165,42.814C154.138,42.724 154.873,42.772 155.881,42.607C156.067,42.577 156.568,42.548 157.044,42.31ZM96.745,44.437L96.184,44.731L95.248,44.787C95.248,44.787 93.863,44.581 95.098,44.374L95.921,44.374L96.745,44.437ZM102.923,44.644L101.878,44.938L100.137,44.994C100.137,44.994 97.559,44.787 99.858,44.581L101.39,44.581L102.923,44.644Z" style="fill:rgb(255,255,254);"/>
        </g>
        <g id="Fill-28" transform="matrix(2.77196,0,0,2.77196,375.248,221.296)">
            <path d="M64.426,46.054L65.958,46.054L67.49,46.118L66.445,46.412L64.704,46.468C64.704,46.468 62.127,46.262 64.426,46.054" style="fill:rgb(255,255,254);"/>
        </g>
        <g id="Fill-29" transform="matrix(2.77196,0,0,2.77196,375.248,221.296)">
            <path d="M28.015,45.377L31.496,44.893L34.985,44.472L32.653,45.093L28.706,45.698C28.706,45.698 22.825,46.308 28.015,45.377" style="fill:rgb(255,255,254);"/>
        </g>
        <g id="Fill-30" transform="matrix(2.77196,0,0,2.77196,375.248,221.296)">
            <path d="M73.196,45.791L76.708,45.7L80.223,45.673L77.836,46.028L73.845,46.188C73.845,46.188 67.932,46.134 73.196,45.791" style="fill:rgb(255,255,254);"/>
        </g>
        <g id="Fill-31" transform="matrix(2.77196,0,0,2.77196,375.248,221.296)">
            <path d="M43.061,45.995L39.949,46.157L36.827,46.158L38.911,45.318L42.441,44.994C42.441,44.994 47.703,45.238 43.061,45.995" style="fill:rgb(255,255,254);"/>
        </g>
        <g id="Fill-32" transform="matrix(2.77196,0,0,2.77196,375.248,221.296)">
            <path d="M21.325,46.054L27.168,46.054L33.011,46.16L29.028,46.641L22.388,46.734C22.388,46.734 12.561,46.394 21.325,46.054" style="fill:rgb(255,255,254);"/>
        </g>
        <g id="Fill-33" transform="matrix(2.77196,0,0,2.77196,375.248,221.296)">
            <path d="M60.689,45.641L61.512,45.641L62.336,45.705L61.775,45.998L60.839,46.054C60.839,46.054 59.454,45.848 60.689,45.641" style="fill:rgb(255,255,254);"/>
        </g>
        <g id="Fill-34" transform="matrix(2.77196,0,0,2.77196,375.248,221.296)">
            <path d="M30.738,45.525L31.561,45.525L32.384,45.589L31.823,45.882L30.887,45.938C30.887,45.938 29.503,45.731 30.738,45.525" style="fill:rgb(255,255,254);"/>
        </g>
        <g id="Fill-35" transform="matrix(2.77196,0,0,2.77196,375.248,221.296)">
            <path d="M14.021,46.394L14.844,46.394L15.668,46.458L15.106,46.751L14.17,46.807C14.17,46.807 12.786,46.601 14.021,46.394" style="fill:rgb(255,255,254);"/>
        </g>
    </g>
    <g transform="matrix(0.237534,0,0,0.237534,28.1359,4.29559)">
        <text x="-18.559px" y="197px" style="font-family:'AmericanTypewriter-Bold', 'American Typewriter', serif;font-weight:700;font-size:50.258px;fill:white;">BOOK STORE</text>
    </g>
</svg>
